<svg width="181" height="28" viewBox="0 0 181 28" fill="none" xmlns="http://www.w3.org/2000/svg">
<circle cx="8" cy="14" r="8" fill="#89DBEA"/>
<circle cx="28" cy="14" r="8" fill="#68C0D0"/>
<circle cx="48" cy="14" r="8" fill="#4EA3B2"/>
<path d="M66.28 22C66.104 22 65.96 21.944 65.848 21.832C65.736 21.704 65.68 21.56 65.68 21.4V5.8C65.68 5.624 65.736 5.48 65.848 5.368C65.96 5.256 66.104 5.2 66.28 5.2H77.32C77.496 5.2 77.64 5.256 77.752 5.368C77.864 5.48 77.92 5.624 77.92 5.8V8.224C77.92 8.4 77.864 8.544 77.752 8.656C77.64 8.768 77.496 8.824 77.32 8.824H69.904V12.352H76.84C77.016 12.352 77.16 12.416 77.272 12.544C77.384 12.656 77.44 12.8 77.44 12.976V15.376C77.44 15.536 77.384 15.68 77.272 15.808C77.16 15.92 77.016 15.976 76.84 15.976H69.904V21.4C69.904 21.56 69.848 21.704 69.736 21.832C69.624 21.944 69.48 22 69.304 22H66.28ZM81.1159 22C80.9399 22 80.7959 21.944 80.6839 21.832C80.5719 21.704 80.5159 21.56 80.5159 21.4V5.8C80.5159 5.624 80.5719 5.48 80.6839 5.368C80.7959 5.256 80.9399 5.2 81.1159 5.2H87.6439C89.7239 5.2 91.3559 5.68 92.5399 6.64C93.7239 7.584 94.3159 8.928 94.3159 10.672C94.3159 11.808 94.0439 12.768 93.4999 13.552C92.9559 14.336 92.2359 14.928 91.3399 15.328L94.6279 21.232C94.6759 21.328 94.6999 21.416 94.6999 21.496C94.6999 21.624 94.6439 21.744 94.5319 21.856C94.4359 21.952 94.3239 22 94.1959 22H91.0039C90.6999 22 90.4759 21.928 90.3319 21.784C90.1879 21.624 90.0839 21.48 90.0199 21.352L87.2839 16.072H84.8359V21.4C84.8359 21.56 84.7719 21.704 84.6439 21.832C84.5319 21.944 84.3879 22 84.2119 22H81.1159ZM84.8359 12.664H87.5959C88.3479 12.664 88.9079 12.48 89.2759 12.112C89.6599 11.744 89.8519 11.248 89.8519 10.624C89.8519 10 89.6679 9.496 89.2999 9.112C88.9479 8.728 88.3799 8.536 87.5959 8.536H84.8359V12.664ZM97.7097 22C97.5337 22 97.3897 21.944 97.2777 21.832C97.1657 21.704 97.1097 21.56 97.1097 21.4V5.8C97.1097 5.624 97.1657 5.48 97.2777 5.368C97.3897 5.256 97.5337 5.2 97.7097 5.2H108.918C109.094 5.2 109.238 5.256 109.35 5.368C109.462 5.48 109.518 5.624 109.518 5.8V8.056C109.518 8.232 109.462 8.376 109.35 8.488C109.238 8.6 109.094 8.656 108.918 8.656H101.262V11.896H108.39C108.566 11.896 108.71 11.96 108.822 12.088C108.934 12.2 108.99 12.344 108.99 12.52V14.608C108.99 14.768 108.934 14.912 108.822 15.04C108.71 15.152 108.566 15.208 108.39 15.208H101.262V18.544H109.11C109.286 18.544 109.43 18.6 109.542 18.712C109.654 18.824 109.71 18.968 109.71 19.144V21.4C109.71 21.56 109.654 21.704 109.542 21.832C109.43 21.944 109.286 22 109.11 22H97.7097ZM113.038 22C112.862 22 112.718 21.944 112.606 21.832C112.494 21.704 112.438 21.56 112.438 21.4V5.8C112.438 5.624 112.494 5.48 112.606 5.368C112.718 5.256 112.862 5.2 113.038 5.2H124.246C124.422 5.2 124.566 5.256 124.678 5.368C124.79 5.48 124.846 5.624 124.846 5.8V8.056C124.846 8.232 124.79 8.376 124.678 8.488C124.566 8.6 124.422 8.656 124.246 8.656H116.59V11.896H123.718C123.894 11.896 124.038 11.96 124.15 12.088C124.262 12.2 124.318 12.344 124.318 12.52V14.608C124.318 14.768 124.262 14.912 124.15 15.04C124.038 15.152 123.894 15.208 123.718 15.208H116.59V18.544H124.438C124.614 18.544 124.758 18.6 124.87 18.712C124.982 18.824 125.038 18.968 125.038 19.144V21.4C125.038 21.56 124.982 21.704 124.87 21.832C124.758 21.944 124.614 22 124.438 22H113.038ZM128.366 22C128.19 22 128.046 21.944 127.934 21.832C127.822 21.704 127.766 21.56 127.766 21.4V5.8C127.766 5.624 127.822 5.48 127.934 5.368C128.046 5.256 128.19 5.2 128.366 5.2H131.534C131.71 5.2 131.854 5.256 131.966 5.368C132.078 5.48 132.134 5.624 132.134 5.8V18.376H139.406C139.582 18.376 139.726 18.44 139.838 18.568C139.95 18.68 140.006 18.824 140.006 19V21.4C140.006 21.56 139.95 21.704 139.838 21.832C139.726 21.944 139.582 22 139.406 22H128.366ZM142.686 22C142.51 22 142.366 21.944 142.254 21.832C142.142 21.704 142.086 21.56 142.086 21.4V5.8C142.086 5.624 142.142 5.48 142.254 5.368C142.366 5.256 142.51 5.2 142.686 5.2H145.902C146.078 5.2 146.222 5.256 146.334 5.368C146.462 5.48 146.526 5.624 146.526 5.8V21.4C146.526 21.56 146.462 21.704 146.334 21.832C146.222 21.944 146.078 22 145.902 22H142.686ZM150.468 22C150.292 22 150.148 21.944 150.036 21.832C149.924 21.704 149.868 21.56 149.868 21.4V5.8C149.868 5.624 149.924 5.48 150.036 5.368C150.148 5.256 150.292 5.2 150.468 5.2H153.012C153.284 5.2 153.476 5.264 153.588 5.392C153.716 5.504 153.796 5.592 153.828 5.656L159.684 14.872V5.8C159.684 5.624 159.74 5.48 159.852 5.368C159.964 5.256 160.108 5.2 160.284 5.2H163.164C163.34 5.2 163.484 5.256 163.596 5.368C163.708 5.48 163.764 5.624 163.764 5.8V21.376C163.764 21.552 163.708 21.704 163.596 21.832C163.484 21.944 163.34 22 163.164 22H160.596C160.34 22 160.148 21.936 160.02 21.808C159.908 21.68 159.836 21.592 159.804 21.544L153.948 12.664V21.4C153.948 21.56 153.892 21.704 153.78 21.832C153.668 21.944 153.524 22 153.348 22H150.468ZM167.718 22C167.542 22 167.398 21.944 167.286 21.832C167.174 21.704 167.118 21.56 167.118 21.4V5.8C167.118 5.624 167.174 5.48 167.286 5.368C167.398 5.256 167.542 5.2 167.718 5.2H178.926C179.102 5.2 179.246 5.256 179.358 5.368C179.47 5.48 179.526 5.624 179.526 5.8V8.056C179.526 8.232 179.47 8.376 179.358 8.488C179.246 8.6 179.102 8.656 178.926 8.656H171.27V11.896H178.398C178.574 11.896 178.718 11.96 178.83 12.088C178.942 12.2 178.997 12.344 178.997 12.52V14.608C178.997 14.768 178.942 14.912 178.83 15.04C178.718 15.152 178.574 15.208 178.398 15.208H171.27V18.544H179.118C179.294 18.544 179.438 18.6 179.549 18.712C179.662 18.824 179.718 18.968 179.718 19.144V21.4C179.718 21.56 179.662 21.704 179.549 21.832C179.438 21.944 179.294 22 179.118 22H167.718Z" fill="#0C0C0C"/>
</svg>
